<svg xmlns="http://www.w3.org/2000/svg" aria-label="Smart Notes" viewBox="0 0 64 64"><title>Smart Notes</title><rect width="62" height="62" x="1" y="1" fill="#a9cfe5" rx="14"/><g transform="translate(10 10)"><rect width="37" height="37" x="1.5" y="1.5" fill="#fff" stroke="#2e6fa3" stroke-width="2.4" rx="6"/><path stroke="#2e6fa3" stroke-linecap="round" stroke-width="1.2" d="M7 10h26M7 16h26M7 22h26M7 28h26M7 34h26" opacity=".75"/><text x="20" y="24" fill="#1a1a1a" font-family="'Helvetica Neue',Arial,sans-serif" font-size="9" font-weight="700" text-anchor="middle">Notes</text></g><g transform="translate(40 40)"><circle cx="10" cy="10" r="10.5" fill="#fff"/><circle cx="10" cy="10" r="8.5" fill="#2e6fa3"/><path fill="#fff" d="M10 4.5c1.6 2.2 3.6 3.6 3.6 6.1 0 2.3-1.6 3.9-3.6 3.9s-3.6-1.6-3.6-3.9c0-1.4.7-2.3 1.6-3.2.2.8.7 1.3 1.3 1.3.2-1.7.2-2.9.7-4.2"/><rect width="8" height="1.4" x="6" y="14.5" fill="#fff" rx=".7"/></g></svg>